<svg xmlns="http://www.w3.org/2000/svg" xmlns:xlink="http://www.w3.org/1999/xlink" viewBox="0 0 823.94 781"><defs><style>.cls-1{isolation:isolate;}.cls-2{opacity:0.35;fill:url(#linear-gradient);}.cls-3{fill:url(#linear-gradient-2);}.cls-4{fill:url(#linear-gradient-3);}.cls-5{fill:url(#linear-gradient-4);}.cls-6{fill:url(#linear-gradient-5);}.cls-7{fill:url(#linear-gradient-6);}.cls-8{fill:url(#linear-gradient-7);}.cls-9{fill:url(#linear-gradient-8);}.cls-10{fill:url(#linear-gradient-9);}.cls-11{fill:url(#linear-gradient-10);}.cls-12{fill:url(#linear-gradient-11);}.cls-13{fill:url(#linear-gradient-12);}.cls-14{fill:url(#linear-gradient-13);}.cls-15{fill:url(#linear-gradient-14);}.cls-16{fill:url(#linear-gradient-15);}.cls-17{fill:url(#linear-gradient-16);}.cls-18{fill:url(#linear-gradient-17);}.cls-19{fill:url(#linear-gradient-18);}.cls-20{fill:url(#linear-gradient-19);}.cls-21,.cls-22{fill:#fff;mix-blend-mode:soft-light;}.cls-21{opacity:0.65;}</style><linearGradient id="linear-gradient" x1="321.94" y1="552" x2="321.94" y2="52" gradientUnits="userSpaceOnUse"><stop offset="0.44" stop-color="#371551"/><stop offset="1" stop-color="#9e215a"/></linearGradient><linearGradient id="linear-gradient-2" x1="421.94" y1="652" x2="421.94" y2="152" gradientUnits="userSpaceOnUse"><stop offset="0.24" stop-color="#371551"/><stop offset="1" stop-color="#9e215a"/></linearGradient><linearGradient id="linear-gradient-3" x1="321.94" y1="664" x2="321.94" y2="389" gradientUnits="userSpaceOnUse"><stop offset="0.23" stop-color="#371551"/><stop offset="0.38" stop-color="#501853"/><stop offset="0.65" stop-color="#7a1d57"/><stop offset="0.87" stop-color="#942059"/><stop offset="0.99" stop-color="#9e215a"/></linearGradient><linearGradient id="linear-gradient-4" x1="521.94" y1="502" x2="521.94" y2="423" gradientUnits="userSpaceOnUse"><stop offset="0.2" stop-color="#371551"/><stop offset="0.87" stop-color="#9e215a"/></linearGradient><linearGradient id="linear-gradient-5" x1="421.94" y1="781" x2="421.94" y2="239" gradientUnits="userSpaceOnUse"><stop offset="0" stop-color="#ffd400"/><stop offset="0.75" stop-color="#ed0f69"/></linearGradient><linearGradient id="linear-gradient-6" x1="271.94" y1="455" x2="271.94" y2="349" gradientUnits="userSpaceOnUse"><stop offset="0" stop-color="#ffd400"/><stop offset="1" stop-color="#ed0f69"/></linearGradient><linearGradient id="linear-gradient-7" x1="131.19" y1="255.5" x2="131.19" y2="230" xlink:href="#linear-gradient-5"/><linearGradient id="linear-gradient-8" y1="190.75" x2="6.38" y2="190.75" gradientUnits="userSpaceOnUse"><stop offset="0.24" stop-color="#371551"/><stop offset="0.76" stop-color="#9b205a"/><stop offset="1" stop-color="#9e215a"/></linearGradient><linearGradient id="linear-gradient-9" x1="163.81" y1="76.75" x2="176.56" y2="76.75" xlink:href="#linear-gradient-8"/><linearGradient id="linear-gradient-10" x1="53.81" y1="442.75" x2="66.56" y2="442.75" xlink:href="#linear-gradient-8"/><linearGradient id="linear-gradient-11" x1="650.19" y1="461.63" x2="650.19" y2="448.88" xlink:href="#linear-gradient-5"/><linearGradient id="linear-gradient-12" x1="612.19" y1="281.5" x2="612.19" y2="256" xlink:href="#linear-gradient-5"/><linearGradient id="linear-gradient-13" x1="625.19" y1="25.5" x2="625.19" y2="0" xlink:href="#linear-gradient-5"/><linearGradient id="linear-gradient-14" x1="798.19" y1="100.13" x2="798.19" y2="87.38" xlink:href="#linear-gradient-5"/><linearGradient id="linear-gradient-15" x1="736.69" y1="236.63" x2="736.69" y2="223.88" xlink:href="#linear-gradient-5"/><linearGradient id="linear-gradient-16" x1="59.94" y1="89" x2="69.94" y2="89" xlink:href="#linear-gradient-8"/><linearGradient id="linear-gradient-17" x1="813.94" y1="364" x2="823.94" y2="364" xlink:href="#linear-gradient-8"/><linearGradient id="linear-gradient-18" x1="174.94" y1="409.5" x2="189.94" y2="409.5" xlink:href="#linear-gradient-8"/><linearGradient id="linear-gradient-19" x1="510.94" y1="132" x2="510.94" y2="126" xlink:href="#linear-gradient-5"/></defs><g class="cls-1"><g id="Layer_2" data-name="Layer 2"><g id="Layer_2-2" data-name="Layer 2"><rect class="cls-2" x="296.94" y="52" width="50" height="500" rx="25"/><rect class="cls-3" x="396.94" y="152" width="50" height="500" rx="25"/><path class="cls-4" d="M321.94,664a25.07,25.07,0,0,0,25-25V414a25,25,0,0,0-50,0V639A25.07,25.07,0,0,0,321.94,664Z"/><path class="cls-5" d="M521.94,502a25.07,25.07,0,0,0,25-25V448a25,25,0,1,0-50,0v29A25.07,25.07,0,0,0,521.94,502Z"/><path class="cls-6" d="M571.94,341a25.07,25.07,0,0,0-25,25V477a25,25,0,1,1-50,0V264a25,25,0,0,0-50,0V559a25,25,0,0,1-50,0V468a25,25,0,0,0-50,0V639a25,25,0,0,1-50,0V540a25,25,0,0,0-50,0v66a175,175,0,0,0,350,0V366A25.07,25.07,0,0,0,571.94,341Z"/><rect class="cls-7" x="246.94" y="349" width="50" height="106" rx="25"/><path class="cls-8" d="M140.11,238.93H135v-5.11a3.83,3.83,0,0,0-7.65,0v5.11h-5.1a3.82,3.82,0,0,0,0,7.64h5.1v5.11a3.83,3.83,0,0,0,7.65,0v-5.11h5.1a3.82,3.82,0,1,0,0-7.64Z"/><path class="cls-9" d="M5.42,189.79H4.14v-1.27a1,1,0,1,0-1.91,0v1.27H1a1,1,0,0,0,0,1.92H2.23V193a1,1,0,1,0,1.91,0v-1.27H5.42a1,1,0,0,0,0-1.92Z"/><path class="cls-10" d="M174.65,74.84H172.1V72.29a1.92,1.92,0,0,0-3.83,0v2.55h-2.54a1.91,1.91,0,1,0,0,3.82h2.54v2.55a1.92,1.92,0,0,0,3.83,0V78.66h2.55a1.91,1.91,0,1,0,0-3.82Z"/><path class="cls-11" d="M64.65,440.84H62.1v-2.55a1.92,1.92,0,0,0-3.83,0v2.55H55.73a1.91,1.91,0,1,0,0,3.82h2.54v2.55a1.92,1.92,0,0,0,3.83,0v-2.55h2.55a1.91,1.91,0,0,0,0-3.82Z"/><path class="cls-12" d="M654.65,453.34H652.1v-2.55a1.92,1.92,0,0,0-3.83,0v2.55h-2.55a1.91,1.91,0,0,0,0,3.82h2.55v2.55a1.92,1.92,0,0,0,3.83,0v-2.55h2.55a1.91,1.91,0,0,0,0-3.82Z"/><path class="cls-13" d="M621.11,264.93H616v-5.11a3.83,3.83,0,0,0-7.65,0v5.11h-5.1a3.82,3.82,0,1,0,0,7.64h5.1v5.11a3.83,3.83,0,0,0,7.65,0v-5.11h5.1a3.82,3.82,0,1,0,0-7.64Z"/><path class="cls-14" d="M634.11,8.93H629V3.82a3.83,3.83,0,0,0-7.65,0V8.93h-5.1a3.82,3.82,0,1,0,0,7.64h5.1v5.11a3.83,3.83,0,0,0,7.65,0V16.57h5.1a3.82,3.82,0,1,0,0-7.64Z"/><path class="cls-15" d="M802.65,91.84H800.1V89.29a1.92,1.92,0,0,0-3.83,0v2.55h-2.55a1.91,1.91,0,0,0,0,3.82h2.55v2.55a1.92,1.92,0,0,0,3.83,0V95.66h2.55a1.91,1.91,0,0,0,0-3.82Z"/><path class="cls-16" d="M741.15,228.34H738.6v-2.55a1.92,1.92,0,0,0-3.83,0v2.55h-2.55a1.91,1.91,0,0,0,0,3.82h2.55v2.55a1.92,1.92,0,0,0,3.83,0v-2.55h2.55a1.91,1.91,0,0,0,0-3.82Z"/><circle class="cls-17" cx="64.94" cy="89" r="5"/><circle class="cls-18" cx="818.94" cy="364" r="5"/><circle class="cls-19" cx="182.44" cy="409.5" r="7.5"/><circle class="cls-20" cx="510.94" cy="129" r="3"/><rect class="cls-21" x="258.94" y="565" width="20" height="55" rx="10"/><rect class="cls-21" x="354.94" y="456" width="20" height="55" rx="10"/><path class="cls-21" d="M261.94,382h0c-5.5,0-10-3.5-10-9v-3c0-5.5,4.5-8,10-8h0c5.5,0,10,2.5,10,8v3C271.94,378.5,267.44,382,261.94,382Z"/><rect class="cls-21" x="258.94" y="527" width="20" height="20" rx="10"/><path class="cls-22" d="M315.94,426h0c-5.5,0-10-3.5-10-9v-3c0-5.5,4.5-8,10-8h0c5.5,0,10,2.5,10,8v3C325.94,422.5,321.44,426,315.94,426Z"/></g></g></g></svg>