<svg xmlns="http://www.w3.org/2000/svg" viewBox="0 0 85 35"><defs><style>.cls-1{fill:none;}.cls-2{fill:#fff;}</style></defs><g id="Layer_2" data-name="Layer 2"><g id="Layer_1-2" data-name="Layer 1"><rect class="cls-1" width="85" height="35"/><path class="cls-2" d="M13.65,12V24.21a4.11,4.11,0,0,1-1.08,3,4.22,4.22,0,0,1-3.12,1.08,4.91,4.91,0,0,1-1.3-.13V25.6c.38,0,.62.08.73.08.95,0,1.43-.5,1.43-1.5V12ZM14,8.61A1.74,1.74,0,0,1,13.37,10a2,2,0,0,1-1.39.53A2,2,0,0,1,10.56,10,1.73,1.73,0,0,1,10,8.61a1.7,1.7,0,0,1,.59-1.32A2,2,0,0,1,12,6.75a2,2,0,0,1,1.39.54A1.76,1.76,0,0,1,14,8.61Z"/><path class="cls-2" d="M26.37,12V23.73H23V22.66A4.22,4.22,0,0,1,19.8,24a4.13,4.13,0,0,1-3.12-1.18,4.43,4.43,0,0,1-1.12-3.15V12h3.35v7a2.23,2.23,0,0,0,.48,1.52,1.83,1.83,0,0,0,1.46.55,2.24,2.24,0,0,0,1.37-.43A2,2,0,0,0,23,19.46V12Z"/><path class="cls-2" d="M38.34,23.73H35.13V23.1a2.94,2.94,0,0,1-1.16.58,5.76,5.76,0,0,1-1.78.26,5,5,0,0,1-3.19-1,3.35,3.35,0,0,1-1.28-2.78,3.3,3.3,0,0,1,1.33-2.71,5.22,5.22,0,0,1,3.33-1.05,6.21,6.21,0,0,1,1.56.21,3.72,3.72,0,0,1,1.19.48V16.2a1.8,1.8,0,0,0-.5-1.3,2,2,0,0,0-1.47-.51,1.72,1.72,0,0,0-1.78,1.1H28.2a4.2,4.2,0,0,1,1.66-2.69,5.44,5.44,0,0,1,3.41-1.06A5.42,5.42,0,0,1,37,12.93a4.24,4.24,0,0,1,1.34,3.32Zm-3.21-3.2v-.84a1.6,1.6,0,0,0-.82-.75A3.34,3.34,0,0,0,33,18.67a2.88,2.88,0,0,0-1.5.37,1.16,1.16,0,0,0-.63,1.07,1.18,1.18,0,0,0,.62,1.08,2.94,2.94,0,0,0,1.51.37,3.34,3.34,0,0,0,1.36-.28A1.52,1.52,0,0,0,35.13,20.53Z"/><path class="cls-2" d="M40.25,23.73V12h3.34v1.08a4.08,4.08,0,0,1,3.24-1.34A4.12,4.12,0,0,1,50,12.92a4.42,4.42,0,0,1,1.11,3.15v7.66H47.74v-7a2.17,2.17,0,0,0-.5-1.51,1.87,1.87,0,0,0-1.47-.56,2.29,2.29,0,0,0-1.38.43,2,2,0,0,0-.8,1.2v7.42Z"/><path class="cls-2" d="M56.39,22.76v1H53V6.67h3.37V13a3.49,3.49,0,0,1,1.27-.86,4.23,4.23,0,0,1,1.75-.37,4.91,4.91,0,0,1,4,1.76,6.59,6.59,0,0,1,1.47,4.38,6.54,6.54,0,0,1-1.47,4.37,4.93,4.93,0,0,1-4,1.75,4.4,4.4,0,0,1-1.75-.37A3.5,3.5,0,0,1,56.39,22.76Zm0-6.82V19.8a2.38,2.38,0,0,0,.91,1,2.43,2.43,0,0,0,1.36.38,2.59,2.59,0,0,0,2.1-.92,3.52,3.52,0,0,0,.78-2.36,3.61,3.61,0,0,0-.78-2.38,2.6,2.6,0,0,0-2.1-.93,2.55,2.55,0,0,0-1.35.38A2.49,2.49,0,0,0,56.39,15.94Z"/><path class="cls-2" d="M73.67,19.9h3.1a4.7,4.7,0,0,1-1.71,3A5.77,5.77,0,0,1,71.43,24a5.59,5.59,0,0,1-4.23-1.7,6.13,6.13,0,0,1-1.62-4.42,6.23,6.23,0,0,1,1.63-4.4,5.47,5.47,0,0,1,4.17-1.74,5.18,5.18,0,0,1,4,1.59,6.07,6.07,0,0,1,1.44,4.24v1h-8a3.13,3.13,0,0,0,.78,2.06,2.4,2.4,0,0,0,1.83.75A2,2,0,0,0,73.67,19.9ZM71.4,14.39a2.39,2.39,0,0,0-2.5,2.2h4.66A2.39,2.39,0,0,0,73,15,2,2,0,0,0,71.4,14.39Z"/></g></g></svg>